<svg width="219" height="48" viewBox="0 0 219 48" fill="none" xmlns="http://www.w3.org/2000/svg">
<path d="M5.86364 6.09091H17.6591L22.5 25.8636H22.9091L34.2955 6.09091H46.0909L40.2955 41H31.0227L34.3636 20.8182H34.0909L23.0455 40.7273H17.4545L13.0227 20.6818H12.75L9.34091 41H0.0681818L5.86364 6.09091ZM60.3324 6.09091L64.3551 16.25H64.6278L72.1278 6.09091H83.1051L69.8097 23.5455L77.7188 41H67.1506L62.9233 30.6364H62.6506L55.0142 41H43.9688L57.6051 23.5455L50.1051 6.09091H60.3324Z" fill="#FFA500"/>
<path d="M90.0284 21L92.4432 6.45455H98.7216C99.8011 6.45455 100.713 6.65104 101.456 7.04403C102.199 7.43703 102.734 8.00284 103.061 8.74148C103.388 9.48011 103.466 10.3655 103.295 11.3977C103.125 12.4394 102.749 13.3177 102.166 14.0327C101.589 14.7429 100.852 15.2827 99.9574 15.652C99.0672 16.0166 98.0682 16.1989 96.9602 16.1989H93.2102L93.7216 13.1307H96.6761C97.1402 13.1307 97.5473 13.0739 97.8977 12.9602C98.2481 12.8419 98.5322 12.6572 98.75 12.4062C98.9678 12.1506 99.1098 11.8144 99.1761 11.3977C99.2424 10.9811 99.2093 10.6425 99.0767 10.3821C98.9441 10.117 98.724 9.92282 98.4162 9.79972C98.1084 9.67187 97.7273 9.60795 97.2727 9.60795H95.8807L93.9773 21H90.0284ZM99.6591 14.3239L102.188 21H97.8977L95.4545 14.3239H99.6591ZM103.583 21L105.998 6.45455H116.481L115.941 9.63636H109.407L109.009 12.1364H115.004L114.464 15.3182H108.469L108.072 17.8182H114.577L114.038 21H103.583ZM116.025 21L118.439 6.45455H124.718C125.797 6.45455 126.706 6.66761 127.445 7.09375C128.184 7.51989 128.714 8.11884 129.036 8.89062C129.358 9.66241 129.434 10.5644 129.263 11.5966C129.093 12.6477 128.714 13.5545 128.127 14.3168C127.544 15.0743 126.801 15.6591 125.897 16.071C124.997 16.4782 123.989 16.6818 122.871 16.6818H119.121L119.632 13.6136H122.587C123.06 13.6136 123.477 13.5331 123.837 13.3722C124.197 13.2064 124.488 12.9744 124.711 12.6761C124.933 12.3731 125.078 12.0133 125.144 11.5966C125.21 11.1799 125.179 10.8248 125.051 10.5312C124.928 10.233 124.715 10.0057 124.412 9.84943C124.114 9.68845 123.733 9.60795 123.269 9.60795H121.877L119.973 21H116.025ZM131.112 21H126.85L134.066 6.45455H139.464L141.85 21H137.589L136.168 10.4602H136.055L131.112 21ZM131.282 15.2614H139.293L138.782 18.2159H130.771L131.282 15.2614ZM149.615 6.45455L147.2 21H143.251L145.666 6.45455H149.615ZM149.071 21L151.486 6.45455H157.765C158.844 6.45455 159.756 6.65104 160.499 7.04403C161.242 7.43703 161.777 8.00284 162.104 8.74148C162.431 9.48011 162.509 10.3655 162.338 11.3977C162.168 12.4394 161.792 13.3177 161.209 14.0327C160.632 14.7429 159.895 15.2827 159 15.652C158.11 16.0166 157.111 16.1989 156.003 16.1989H152.253L152.765 13.1307H155.719C156.183 13.1307 156.59 13.0739 156.941 12.9602C157.291 12.8419 157.575 12.6572 157.793 12.4062C158.011 12.1506 158.153 11.8144 158.219 11.3977C158.285 10.9811 158.252 10.6425 158.12 10.3821C157.987 10.117 157.767 9.92282 157.459 9.79972C157.151 9.67187 156.77 9.60795 156.316 9.60795H154.924L153.02 21H149.071ZM158.702 14.3239L161.23 21H156.941L154.498 14.3239H158.702Z" fill="white"/>
<path d="M87.0284 41L89.4432 26.4545H95.7216C96.8011 26.4545 97.7102 26.6676 98.4489 27.0938C99.1875 27.5199 99.7178 28.1188 100.04 28.8906C100.362 29.6624 100.438 30.5644 100.267 31.5966C100.097 32.6477 99.7178 33.5545 99.1307 34.3168C98.5483 35.0743 97.8049 35.6591 96.9006 36.071C96.0009 36.4782 94.9924 36.6818 93.875 36.6818H90.125L90.6364 33.6136H93.5909C94.0644 33.6136 94.4811 33.5331 94.8409 33.3722C95.2008 33.2064 95.492 32.9744 95.7145 32.6761C95.937 32.3731 96.0814 32.0133 96.1477 31.5966C96.214 31.1799 96.1832 30.8248 96.0554 30.5312C95.9323 30.233 95.7192 30.0057 95.4162 29.8494C95.1179 29.6884 94.7367 29.608 94.2727 29.608H92.8807L90.9773 41H87.0284ZM102.115 41H97.854L105.07 26.4545H110.468L112.854 41H108.593L107.172 30.4602H107.059L102.115 41ZM102.286 35.2614H110.297L109.786 38.2159H101.775L102.286 35.2614ZM114.255 41L116.67 26.4545H122.948C124.028 26.4545 124.939 26.651 125.683 27.044C126.426 27.437 126.961 28.0028 127.288 28.7415C127.614 29.4801 127.692 30.3655 127.522 31.3977C127.352 32.4394 126.975 33.3177 126.393 34.0327C125.815 34.7429 125.079 35.2827 124.184 35.652C123.294 36.0166 122.295 36.1989 121.187 36.1989H117.437L117.948 33.1307H120.903C121.367 33.1307 121.774 33.0739 122.124 32.9602C122.475 32.8419 122.759 32.6572 122.977 32.4062C123.194 32.1506 123.336 31.8144 123.403 31.3977C123.469 30.9811 123.436 30.6425 123.303 30.3821C123.171 30.117 122.951 29.9228 122.643 29.7997C122.335 29.6719 121.954 29.608 121.499 29.608H120.107L118.204 41H114.255ZM123.886 34.3239L126.414 41H122.124L119.681 34.3239H123.886ZM129.287 29.6364L129.827 26.4545H142.469L141.929 29.6364H137.554L135.679 41H131.787L133.662 29.6364H129.287ZM151.029 31C151.071 30.5312 150.958 30.1643 150.688 29.8991C150.418 29.6293 149.963 29.4943 149.324 29.4943C148.917 29.4943 148.576 29.5417 148.301 29.6364C148.032 29.7311 147.821 29.8613 147.669 30.027C147.523 30.1927 147.43 30.3845 147.392 30.6023C147.35 30.7727 147.352 30.929 147.4 31.071C147.452 31.2083 147.549 31.3338 147.691 31.4474C147.837 31.5611 148.029 31.6629 148.266 31.7528C148.507 31.8428 148.794 31.9233 149.125 31.9943L150.262 32.25C151.038 32.4205 151.689 32.6454 152.215 32.9247C152.745 33.1993 153.162 33.526 153.465 33.9048C153.768 34.2836 153.967 34.7074 154.061 35.1761C154.161 35.6449 154.163 36.1562 154.069 36.7102C153.908 37.6667 153.536 38.4763 152.953 39.1392C152.371 39.8021 151.611 40.3063 150.674 40.652C149.736 40.9976 148.652 41.1705 147.421 41.1705C146.161 41.1705 145.091 40.9834 144.211 40.6094C143.335 40.2306 142.7 39.6529 142.307 38.8764C141.919 38.0952 141.824 37.0985 142.023 35.8864H145.773C145.716 36.3314 145.764 36.7055 145.915 37.0085C146.067 37.3116 146.31 37.5412 146.647 37.6974C146.983 37.8537 147.402 37.9318 147.904 37.9318C148.33 37.9318 148.694 37.8797 148.998 37.7756C149.301 37.6714 149.54 37.527 149.715 37.3423C149.89 37.1577 149.997 36.947 150.034 36.7102C150.072 36.4924 150.034 36.2983 149.921 36.1278C149.807 35.9574 149.601 35.8035 149.303 35.6662C149.005 35.5289 148.595 35.4034 148.074 35.2898L146.682 34.9773C145.446 34.6932 144.514 34.2244 143.884 33.571C143.254 32.9176 143.032 32.0227 143.216 30.8864C143.368 29.9583 143.749 29.1487 144.36 28.4574C144.975 27.7614 145.757 27.2216 146.703 26.8381C147.655 26.4498 148.709 26.2557 149.864 26.2557C151.038 26.2557 152.021 26.4522 152.811 26.8452C153.607 27.2382 154.177 27.7898 154.523 28.5C154.873 29.2102 154.968 30.0436 154.807 31H151.029ZM157.133 41.2273C156.579 41.2273 156.127 41.0355 155.777 40.652C155.431 40.2637 155.287 39.7926 155.343 39.2386C155.4 38.6989 155.644 38.2372 156.075 37.8537C156.511 37.4702 157.005 37.2784 157.559 37.2784C158.085 37.2784 158.523 37.4702 158.873 37.8537C159.228 38.2372 159.377 38.6989 159.321 39.2386C159.283 39.608 159.153 39.9441 158.93 40.2472C158.712 40.5455 158.442 40.7846 158.12 40.9645C157.803 41.1397 157.474 41.2273 157.133 41.2273Z" fill="white"/>
<path d="M176.181 31.9091H172.233C172.261 31.5729 172.242 31.2699 172.176 31C172.109 30.7301 171.996 30.4981 171.835 30.304C171.674 30.1051 171.463 29.9536 171.203 29.8494C170.942 29.7453 170.632 29.6932 170.272 29.6932C169.581 29.6932 168.963 29.866 168.419 30.2116C167.874 30.5526 167.422 31.0426 167.062 31.6818C166.702 32.3163 166.447 33.0739 166.295 33.9545C166.163 34.8068 166.158 35.5147 166.281 36.0781C166.409 36.6416 166.657 37.063 167.027 37.3423C167.401 37.6217 167.886 37.7614 168.483 37.7614C168.88 37.7614 169.245 37.714 169.576 37.6193C169.913 37.5246 170.211 37.3897 170.471 37.2145C170.736 37.0346 170.961 36.8215 171.146 36.5753C171.335 36.3243 171.48 36.0473 171.579 35.7443H175.556C175.405 36.3598 175.135 36.9896 174.747 37.6335C174.359 38.2727 173.857 38.8622 173.241 39.402C172.626 39.937 171.901 40.3703 171.068 40.7017C170.234 41.0331 169.297 41.1989 168.255 41.1989C166.892 41.1989 165.715 40.9006 164.725 40.304C163.741 39.7074 163.026 38.8362 162.581 37.6903C162.14 36.5445 162.053 35.1477 162.318 33.5C162.583 31.9091 163.106 30.5762 163.887 29.5014C164.669 28.4266 165.618 27.617 166.735 27.0724C167.853 26.5279 169.041 26.2557 170.301 26.2557C171.252 26.2557 172.105 26.3812 172.858 26.6321C173.615 26.883 174.252 27.25 174.768 27.733C175.289 28.2112 175.672 28.8007 175.919 29.5014C176.165 30.2022 176.252 31.0047 176.181 31.9091ZM191.737 33.983C191.472 35.5644 190.946 36.8902 190.161 37.9602C189.375 39.0303 188.42 39.8376 187.298 40.3821C186.176 40.9266 184.976 41.1989 183.697 41.1989C182.334 41.1989 181.15 40.9029 180.146 40.3111C179.143 39.7192 178.411 38.8527 177.952 37.7116C177.492 36.5705 177.4 35.1761 177.675 33.5284C177.93 31.947 178.451 30.6165 179.237 29.5369C180.023 28.4574 180.982 27.6406 182.114 27.0866C183.245 26.5327 184.455 26.2557 185.743 26.2557C187.097 26.2557 188.274 26.554 189.273 27.1506C190.277 27.7472 191.006 28.6207 191.46 29.7713C191.92 30.9219 192.012 32.3258 191.737 33.983ZM187.76 33.5284C187.893 32.6951 187.902 31.9943 187.788 31.4261C187.675 30.8532 187.436 30.4223 187.071 30.1335C186.706 29.84 186.216 29.6932 185.601 29.6932C184.9 29.6932 184.28 29.8636 183.74 30.2045C183.2 30.5455 182.753 31.0355 182.398 31.6747C182.043 32.3139 181.794 33.0833 181.652 33.983C181.5 34.8258 181.486 35.5265 181.609 36.0852C181.737 36.6439 181.988 37.063 182.362 37.3423C182.741 37.6217 183.233 37.7614 183.839 37.7614C184.531 37.7614 185.142 37.5956 185.672 37.2642C186.207 36.9328 186.65 36.4522 187 35.8224C187.355 35.1927 187.608 34.428 187.76 33.5284ZM194.814 26.4545H199.729L201.746 34.6932H201.917L206.661 26.4545H211.576L209.161 41H205.297L206.689 32.5909H206.576L201.973 40.8864H199.644L197.797 32.5341H197.684L196.263 41H192.4L194.814 26.4545Z" fill="#FFA500"/>
</svg>
